<svg width="172" height="172" viewBox="0 0 172 172" fill="none" xmlns="http://www.w3.org/2000/svg">
<rect width="172" height="172" rx="32" fill="#ECF7FC"/>
<path d="M115.174 62.5777C116.346 46.8022 102.499 37.4333 76.3211 45.5277" stroke="#2C306B" stroke-width="3" stroke-miterlimit="10" stroke-linecap="round"/>
<path d="M86.5511 50.9701C86.5511 50.9701 64.8166 35.6423 47.25 44.3912C29.6833 53.1401 36.5033 70.9479 42.0833 82.2801C47.6633 93.6123 47.6633 113.28 48.9722 121.271C50.2811 129.262 55.5511 134.842 59.3055 133.051C63.06 131.26 60.9244 123.682 64.0933 110.49C67.2622 97.2979 70.5 91.7523 76.6655 91.959C82.8311 92.1657 86.9989 103.739 87.8255 110.318C88.6522 116.897 87.4466 132.741 92.6133 133.396C97.78 134.05 104.393 125.06 104.187 104.531C104.124 101.06 104.459 97.5929 105.186 94.1979" stroke="#2C306B" stroke-width="3" stroke-miterlimit="10" stroke-linecap="round"/>
<path d="M103.084 93.7847C112.996 93.7847 121.03 85.7502 121.03 75.8391C121.03 65.9281 112.996 57.8936 103.084 57.8936C93.1734 57.8936 85.1389 65.9281 85.1389 75.8391C85.1389 85.7502 93.1734 93.7847 103.084 93.7847Z" stroke="#2C306B" stroke-width="3" stroke-miterlimit="10" stroke-linecap="round"/>
<path d="M112.66 91.3735L119.308 102.568" stroke="#2C306B" stroke-width="3" stroke-miterlimit="10" stroke-linecap="round"/>
<path d="M116.621 104.669L122.167 101.224C122.327 101.122 122.506 101.053 122.694 101.021C122.881 100.988 123.073 100.992 123.258 101.034C123.444 101.076 123.619 101.153 123.775 101.263C123.93 101.372 124.063 101.511 124.164 101.672L135.772 119.755C135.983 120.081 136.058 120.476 135.981 120.856C135.903 121.236 135.68 121.57 135.359 121.788L129.538 125.508C129.376 125.615 129.194 125.689 129.003 125.724C128.812 125.76 128.616 125.757 128.427 125.715C128.237 125.673 128.058 125.594 127.899 125.481C127.741 125.369 127.607 125.225 127.506 125.06L116.173 106.667C115.976 106.34 115.913 105.95 115.996 105.578C116.08 105.206 116.304 104.88 116.621 104.669V104.669Z" stroke="#2C306B" stroke-width="3" stroke-miterlimit="10" stroke-linecap="round"/>
</svg>
