<svg width="172" height="172" viewBox="0 0 172 172" fill="none" xmlns="http://www.w3.org/2000/svg">
<rect width="172" height="172" rx="32" fill="#ECF7FC"/>
<path d="M43.3578 88.8244C43.3578 88.8244 48.2833 109.147 87.4811 109.87C123.269 110.559 133.327 84.6911 133.327 84.6911C133.327 84.6911 116.104 61.2 87.0678 61.6133C58.0311 62.0266 49.3856 78.6289 42.29 81.7289C33.9545 85.4144 32.7489 89.8922 35.7111 92.5789C38.6733 95.2655 44.15 93.9222 44.15 93.9222" stroke="#2C306B" stroke-width="3" stroke-linecap="round" stroke-linejoin="round"/>
<path d="M87.9978 103.98C100.211 103.98 110.111 94.5576 110.111 82.9345C110.111 71.3113 100.211 61.8889 87.9978 61.8889C75.7849 61.8889 65.8845 71.3113 65.8845 82.9345C65.8845 94.5576 75.7849 103.98 87.9978 103.98Z" stroke="#2C306B" stroke-width="3" stroke-linecap="round" stroke-linejoin="round"/>
<path d="M53.4156 72.6359C55.1428 71.1789 56.4768 69.3117 57.2952 67.2055C58.1136 65.0992 58.3903 62.8213 58.1 60.5803" stroke="#2C306B" stroke-width="3" stroke-linecap="round" stroke-linejoin="round"/>
<path d="M69.9144 63.8869C71.6429 62.4295 72.98 60.5634 73.8041 58.458C74.6281 56.3527 74.9132 54.0748 74.6333 51.8313" stroke="#2C306B" stroke-width="3" stroke-linecap="round" stroke-linejoin="round"/>
<path d="M113.211 67.9513C116.003 67.8859 118.727 67.0754 121.101 65.6038C123.475 64.1323 125.413 62.053 126.713 59.5813" stroke="#2C306B" stroke-width="3" stroke-linecap="round" stroke-linejoin="round"/>
<path d="M123.889 75.4257C126.691 75.4323 129.445 74.6923 131.866 73.2817C134.288 71.8712 136.29 69.8411 137.667 67.4001" stroke="#2C306B" stroke-width="3" stroke-linecap="round" stroke-linejoin="round"/>
<path d="M86 61.889C89.35 60.5328 92.2981 58.3433 94.5646 55.5282C96.8311 52.7131 98.341 49.3657 98.9511 45.8035" stroke="#2C306B" stroke-width="3" stroke-linecap="round" stroke-linejoin="round"/>
<path d="M101.534 63.4735C105.052 62.6111 108.29 60.8642 110.943 58.3987C113.595 55.9331 115.573 52.8307 116.69 49.3857" stroke="#2C306B" stroke-width="3" stroke-linecap="round" stroke-linejoin="round"/>
<path d="M133.327 111.902C133.327 111.902 133.327 106.253 128.78 105.013C109.181 122.993 73.6689 116.69 73.6689 116.69" stroke="#2C306B" stroke-width="3" stroke-linecap="round" stroke-linejoin="round"/>
<path d="M118.447 122.236C118.447 122.236 118.447 115.347 113.211 113.9" stroke="#2C306B" stroke-width="3" stroke-linecap="round" stroke-linejoin="round"/>
<path d="M103.498 126.231C103.498 126.231 102.292 118.447 97.78 117.172" stroke="#2C306B" stroke-width="3" stroke-linecap="round" stroke-linejoin="round"/>
<path d="M95.1966 80.5233C94.3915 80.5233 93.5942 80.3647 92.8504 80.0566C92.1065 79.7485 91.4306 79.2968 90.8613 78.7275C90.292 78.1582 89.8403 77.4823 89.5322 76.7384C89.2241 75.9946 89.0655 75.1973 89.0655 74.3922C89.057 73.4081 89.2938 72.4374 89.7544 71.5677C89.1755 71.456 88.5874 71.3983 87.9977 71.3955C85.954 71.3955 83.9562 72.0015 82.2568 73.137C80.5575 74.2724 79.2331 75.8863 78.451 77.7744C77.6689 79.6626 77.4642 81.7403 77.863 83.7448C78.2617 85.7492 79.2458 87.5905 80.691 89.0356C82.1361 90.4808 83.9773 91.4649 85.9818 91.8636C87.9863 92.2623 90.064 92.0577 91.9521 91.2756C93.8403 90.4935 95.4542 89.169 96.5896 87.4697C97.725 85.7704 98.3311 83.7726 98.3311 81.7288C98.3267 81.1393 98.2691 80.5513 98.1589 79.9722C97.2354 80.4081 96.215 80.5979 95.1966 80.5233Z" fill="#2C306B"/>
</svg>
