<svg width="172" height="172" viewBox="0 0 172 172" fill="none" xmlns="http://www.w3.org/2000/svg">
<rect width="172" height="172" rx="32" fill="#ECF7FC"/>
<path d="M125.301 54.173C117.103 53.0019 106.701 56.9286 102.774 64.5064L98.4 65.2641C90.1936 66.6761 81.8064 66.6761 73.6 65.2641L69.2255 64.5064C65.3333 56.9286 55 53.0019 46.6989 54.173C38.3978 55.3441 30.5789 61.0619 31.1989 77.7675C31.8189 94.473 43.7367 95.9197 43.7367 95.9197C47.0089 98.6752 54.3455 98.5719 59.7533 93.5775C65.1611 88.583 64.0244 82.2108 56.9978 81.3497C54.9728 81.1542 52.9317 81.4865 51.0733 82.3141C48.0794 83.6295 45.5396 85.7979 43.7711 88.5486L43.3233 89.2375C43.3233 89.2375 36.4344 86.7919 36.8133 74.9775C37.1922 63.163 42.9789 59.1675 52.2444 59.9252C61.51 60.683 66.2633 67.3308 70.0867 78.5941C73.91 89.8575 74.9433 98.2619 78.0433 100.604C79.5745 101.66 80.8155 103.084 81.6522 104.746C82.4888 106.407 82.8942 108.252 82.8311 110.111C82.8311 114.141 83.6578 125.301 83.6578 125.301H88.3422C88.3422 125.301 89.2033 114.141 89.2033 110.111C89.1622 108.283 89.5749 106.474 90.4044 104.845C91.234 103.216 92.4544 101.818 93.9567 100.776C97.0567 98.4341 98.1244 90.0297 101.913 78.7664C105.702 67.503 110.524 60.8208 119.756 60.0975C128.987 59.3741 134.636 63.5419 135.187 75.1497C135.738 86.7575 128.677 89.4097 128.677 89.4097L128.229 88.7208C126.46 85.9702 123.921 83.8017 120.927 82.4863C119.068 81.6587 117.027 81.3264 115.002 81.5219C108.113 82.383 106.804 88.7552 112.247 93.7497C117.689 98.7441 124.44 99.1575 127.747 96.4019C127.747 96.4019 140.147 94.5075 140.801 77.9397C141.456 61.3719 133.464 55.3441 125.301 54.173Z" stroke="#2C306B" stroke-width="3" stroke-linecap="round" stroke-linejoin="round"/>
<path d="M81.4189 77.3201H90.5811C90.8144 77.3218 91.0442 77.3774 91.2525 77.4826C91.4609 77.5877 91.6421 77.7396 91.7821 77.9262C91.9221 78.1129 92.0171 78.3294 92.0597 78.5589C92.1024 78.7883 92.0914 79.0245 92.0278 79.249L87.9978 93.0267H84.0711L79.9722 79.249C79.9155 79.0248 79.9097 78.7909 79.9552 78.5642C80.0007 78.3376 80.0962 78.124 80.2349 77.9391C80.3736 77.7541 80.5519 77.6026 80.7568 77.4955C80.9616 77.3884 81.1879 77.3284 81.4189 77.3201V77.3201Z" stroke="#2C306B" stroke-width="3" stroke-linecap="round" stroke-linejoin="round"/>
<path d="M86 101.121V93.0613" stroke="#2C306B" stroke-width="3" stroke-linecap="round" stroke-linejoin="round"/>
</svg>
