<svg width="172" height="172" viewBox="0 0 172 172" fill="none" xmlns="http://www.w3.org/2000/svg">
<rect width="172" height="172" rx="32" fill="#ECF7FC"/>
<path d="M87.5 71C89.9853 71 92 68.9853 92 66.5C92 64.0147 89.9853 62 87.5 62C85.0147 62 83 64.0147 83 66.5C83 68.9853 85.0147 71 87.5 71Z" fill="#2C306B"/>
<path d="M87.5 92C89.9853 92 92 89.9853 92 87.5C92 85.0147 89.9853 83 87.5 83C85.0147 83 83 85.0147 83 87.5C83 89.9853 85.0147 92 87.5 92Z" fill="#2C306B"/>
<path d="M87.5 113C89.9853 113 92 110.985 92 108.5C92 106.015 89.9853 104 87.5 104C85.0147 104 83 106.015 83 108.5C83 110.985 85.0147 113 87.5 113Z" fill="#2C306B"/>
</svg>
