<svg width="172" height="172" viewBox="0 0 172 172" fill="none" xmlns="http://www.w3.org/2000/svg">
<rect width="172" height="172" rx="32" fill="#ECF7FC"/>
<path d="M61.0278 41.6013L96.3333 66.0913C108.044 74.2202 116.449 84.7946 115.037 94.6113C113.624 104.428 106.977 132.052 106.977 132.052" stroke="#2C306B" stroke-width="3" stroke-linecap="round" stroke-linejoin="round"/>
<path d="M49.3511 50.6255C49.3511 50.6255 61.3722 64.7133 71.1889 69.501C81.0056 74.2888 93.4056 76.6655 96.2644 81.4533C97.0116 82.8727 97.4628 84.429 97.5907 86.0279C97.7186 87.6269 97.5205 89.2351 97.0084 90.7552C96.4964 92.2753 95.681 93.6757 94.6117 94.8713C93.5424 96.067 92.2415 97.0331 90.7878 97.711C83.8989 101.155 79.5589 102.017 77.3889 96.5055C75.2189 90.9944 59.9944 71.4299 39.5 65.5055" stroke="#2C306B" stroke-width="3" stroke-linecap="round" stroke-linejoin="round"/>
<path d="M35.0567 86C35.0567 86 39.6033 94.6111 65.3333 106.081C62.9744 114.299 62.2029 122.891 63.06 131.398" stroke="#2C306B" stroke-width="3" stroke-linecap="round" stroke-linejoin="round"/>
<path d="M74.9433 135.704C74.9433 135.704 78.8356 124.027 77.8711 118.757C76.9067 113.487 74.7022 107.287 77.01 104.394" stroke="#2C306B" stroke-width="3" stroke-linecap="round" stroke-linejoin="round"/>
<path d="M96.5056 102.981C97.4827 104.664 98.0922 106.535 98.2941 108.47C98.4959 110.405 98.2855 112.362 97.6767 114.21C94.5566 121.055 93.6882 128.713 95.1967 136.082" stroke="#2C306B" stroke-width="3" stroke-linecap="round" stroke-linejoin="round"/>
<path d="M80.73 107.046C82.714 108.553 85.1279 109.386 87.6189 109.423C91.4422 109.423 93.75 114.21 97.9522 111.834" stroke="#2C306B" stroke-width="3" stroke-linecap="round" stroke-linejoin="round"/>
<path d="M106.081 87.6877C106.081 87.6877 97.3322 93.6811 104.187 104.393C106.476 102.313 107.931 99.4709 108.279 96.3972C108.628 93.3235 107.847 90.2279 106.081 87.6877V87.6877Z" stroke="#2C306B" stroke-width="3" stroke-linecap="round" stroke-linejoin="round"/>
<path d="M86 136.943C114.135 136.943 136.943 114.135 136.943 86C136.943 57.8647 114.135 35.0566 86 35.0566C57.8648 35.0566 35.0567 57.8647 35.0567 86C35.0567 114.135 57.8648 136.943 86 136.943Z" stroke="#2C306B" stroke-width="3" stroke-linecap="round" stroke-linejoin="round"/>
</svg>
