<svg width="172" height="172" viewBox="0 0 172 172" fill="none" xmlns="http://www.w3.org/2000/svg">
<rect width="172" height="172" rx="32" fill="#ECF7FC"/>
<path d="M85.7589 90.4088C100.102 90.4088 111.73 78.7811 111.73 64.4377C111.73 50.0942 100.102 38.4666 85.7589 38.4666C71.4154 38.4666 59.7878 50.0942 59.7878 64.4377C59.7878 78.7811 71.4154 90.4088 85.7589 90.4088Z" stroke="#2C306B" stroke-width="3" stroke-linecap="round" stroke-linejoin="round"/>
<path d="M82.7622 38.6389C81.4385 39.785 80.5462 41.349 80.2329 43.0717C79.9197 44.7944 80.2045 46.5724 81.04 48.1111C81.5758 49.0289 82.3514 49.7836 83.2834 50.2943C84.2155 50.8049 85.269 51.0522 86.3309 51.0097C87.3928 50.9673 88.4232 50.6366 89.3115 50.0531C90.1998 49.4697 90.9125 48.6555 91.3733 47.6978" stroke="#2C306B" stroke-width="3" stroke-linecap="round" stroke-linejoin="round"/>
<path d="M73.7033 72.9456C74.8611 75.0721 76.5992 76.826 78.7152 78.003C80.8313 79.1799 83.2381 79.7314 85.6555 79.5933C88.0425 79.6096 90.3926 79.0054 92.4758 77.84C94.559 76.6747 96.3037 74.9881 97.5389 72.9456" stroke="#2C306B" stroke-width="3" stroke-linecap="round" stroke-linejoin="round"/>
<path d="M70.0867 61.5789C70.0867 61.5789 70.4656 57.0667 74.5989 57.0667C75.194 57.0574 75.7849 57.1678 76.3366 57.3912C76.8882 57.6147 77.3894 57.9467 77.8102 58.3676C78.2311 58.7884 78.5631 59.2896 78.7866 59.8412C79.0101 60.3929 79.1204 60.9838 79.1111 61.5789" stroke="#2C306B" stroke-width="3" stroke-linecap="round" stroke-linejoin="round"/>
<path d="M92.2 61.5789C92.2 61.5789 92.5789 57.0667 96.7122 57.0667C97.3074 57.0574 97.8983 57.1678 98.4499 57.3912C99.0016 57.6147 99.5027 57.9467 99.9236 58.3676C100.344 58.7884 100.676 59.2896 100.9 59.8412C101.123 60.3929 101.234 60.9838 101.224 61.5789" stroke="#2C306B" stroke-width="3" stroke-linecap="round" stroke-linejoin="round"/>
<path d="M106.839 80.3169C110.015 84.51 111.733 89.6267 111.73 94.8869V111.834C111.73 118.228 109.19 124.361 104.668 128.883C100.146 133.404 94.0136 135.945 87.6189 135.945H84.1744C77.7798 135.945 71.647 133.404 67.1253 128.883C62.6036 124.361 60.0633 118.228 60.0633 111.834V94.8869C60.0597 89.803 61.6631 84.8481 64.6444 80.7302" stroke="#2C306B" stroke-width="3" stroke-linecap="round" stroke-linejoin="round"/>
<path d="M60.3389 108.63C60.3389 108.63 90.8567 113.349 111.282 90.1333" stroke="#2C306B" stroke-width="3" stroke-linecap="round" stroke-linejoin="round"/>
<path d="M65.7811 127.058C74.2094 128.424 82.8488 127.552 90.8342 124.53C98.8197 121.507 105.871 116.44 111.282 109.835" stroke="#2C306B" stroke-width="3" stroke-linecap="round" stroke-linejoin="round"/>
<path d="M60.7522 90.3745C63.5149 94.9478 67.3743 98.7601 71.9812 101.466C76.588 104.173 81.7969 105.688 87.1367 105.875" stroke="#2C306B" stroke-width="3" stroke-linecap="round" stroke-linejoin="round"/>
<path d="M60.3389 69.7078C58.7254 69.5893 57.2164 68.8647 56.1151 67.6795C55.0138 66.4943 54.4017 64.9363 54.4017 63.3184C54.4017 61.7005 55.0138 60.1425 56.1151 58.9573C57.2164 57.7721 58.7254 57.0475 60.3389 56.929" stroke="#2C306B" stroke-width="3" stroke-linecap="round" stroke-linejoin="round"/>
<path d="M111.282 56.929C112.896 57.0475 114.405 57.7721 115.506 58.9573C116.607 60.1425 117.219 61.7005 117.219 63.3184C117.219 64.9363 116.607 66.4943 115.506 67.6795C114.405 68.8647 112.896 69.5893 111.282 69.7078" stroke="#2C306B" stroke-width="3" stroke-linecap="round" stroke-linejoin="round"/>
</svg>
