<svg width="172" height="172" viewBox="0 0 172 172" fill="none" xmlns="http://www.w3.org/2000/svg">
<rect width="172" height="172" rx="32" fill="#ECF7FC"/>
<path d="M41.0157 137.047C41.0157 137.047 39.6034 115.037 49.0068 105.806C59.3401 95.8511 67.6412 97.2978 67.6412 97.2978L73.979 92.8889" stroke="#2C306B" stroke-width="3" stroke-linecap="round" stroke-linejoin="round"/>
<path d="M130.778 137.047C130.778 137.047 132.224 115.037 122.787 105.806C112.66 95.8511 104.187 97.2978 104.187 97.2978L97.8834 92.8889" stroke="#2C306B" stroke-width="3" stroke-linecap="round" stroke-linejoin="round"/>
<path d="M58.1689 130.984C58.1689 130.984 53.6222 130.984 52.6578 125.335C51.6934 119.687 50.5911 111.558 58.1689 109.939C65.7467 108.32 67.7789 116.001 69.4322 121.615C69.9785 123.042 69.9663 124.622 69.3979 126.039C68.8296 127.457 67.747 128.608 66.3667 129.262" stroke="#2C306B" stroke-width="3" stroke-linecap="round" stroke-linejoin="round"/>
<path d="M59.0989 98.8477C58.4224 102.563 58.1109 106.335 58.1689 110.111" stroke="#2C306B" stroke-width="3" stroke-linecap="round" stroke-linejoin="round"/>
<path d="M108.596 127.988C111.373 127.988 113.624 125.736 113.624 122.959C113.624 120.181 111.373 117.93 108.596 117.93C105.818 117.93 103.567 120.181 103.567 122.959C103.567 125.736 105.818 127.988 108.596 127.988Z" stroke="#2C306B" stroke-width="3" stroke-linecap="round" stroke-linejoin="round"/>
<path d="M113.004 98.9512C114.428 105.545 113.766 112.418 111.11 118.619" stroke="#2C306B" stroke-width="3" stroke-linecap="round" stroke-linejoin="round"/>
<path d="M67.6411 97.2979L85.9311 125.267L104.221 97.2979" stroke="#2C306B" stroke-width="3" stroke-linecap="round" stroke-linejoin="round"/>
<path d="M80.7988 117.413L83.4511 110.455L80.3511 105.909L85.9311 101.603" stroke="#2C306B" stroke-width="3" stroke-linecap="round" stroke-linejoin="round"/>
<path d="M91.0977 117.413L88.411 110.455L91.511 105.909L85.931 101.603" stroke="#2C306B" stroke-width="3" stroke-linecap="round" stroke-linejoin="round"/>
<path d="M106.908 62.8879C103.664 60.3024 101.463 56.6332 100.708 52.5545C100.432 46.699 96.9188 55.4134 85.5177 55.6545C75.9766 55.8612 71.1199 47.5601 70.5344 53.4501C70.174 55.4385 69.4105 57.3321 68.2909 59.0144C67.1714 60.6967 65.7194 62.1321 64.0244 63.2323C62.6267 63.671 61.4525 64.6324 60.7465 65.9159C60.0406 67.1994 59.8575 68.7059 60.2355 70.1212C60.7866 73.5656 63.3355 75.9767 65.9533 75.5634H66.2633C67.951 87.5501 75.9077 96.6779 85.5177 96.6779C95.1277 96.6779 103.153 87.4812 104.772 75.3912H105.013C107.631 75.8045 110.18 73.359 110.697 69.9834C110.924 69.269 111.006 68.5163 110.938 67.7696C110.869 67.023 110.652 66.2976 110.299 65.6363C109.946 64.9749 109.464 64.391 108.881 63.919C108.299 63.4469 107.628 63.0963 106.908 62.8879V62.8879Z" stroke="#2C306B" stroke-width="3" stroke-linecap="round" stroke-linejoin="round"/>
<path d="M63.0943 62.784C63.0943 62.784 62.4743 49.0063 64.6099 47.0085C65.4699 46.1746 66.4441 45.4671 67.5032 44.9074C69.4118 41.8687 72.0656 39.3686 75.2126 37.6444C78.3595 35.9202 81.895 35.0293 85.4832 35.0563C89.135 35.144 92.7164 36.0796 95.9445 37.7893C99.1725 39.499 101.959 41.9358 104.083 44.9074C105.942 45.76 107.433 47.251 108.285 49.1096C108.707 53.8536 108.707 58.6256 108.285 63.3696" stroke="#2C306B" stroke-width="3" stroke-linecap="round" stroke-linejoin="round"/>
</svg>
