<svg width="172" height="172" viewBox="0 0 172 172" fill="none" xmlns="http://www.w3.org/2000/svg">
<rect width="172" height="172" rx="32" fill="#ECF7FC"/>
<path d="M93.9911 133.361V122.442H110.283C120.238 122.442 120.41 114.485 120.41 114.485V108.802L121.788 106.219C122.152 105.495 122.25 104.665 122.063 103.876L120.651 98.3998C120.617 98.3034 120.607 98.2 120.622 98.0989C120.638 97.9977 120.678 97.9019 120.739 97.8201C120.801 97.7382 120.881 97.6729 120.974 97.6298C121.067 97.5867 121.169 97.5672 121.271 97.5731H123.097C124.022 97.5767 124.932 97.3415 125.739 96.8902C126.547 96.4388 127.224 95.7867 127.706 94.9969C128.187 94.2071 128.457 93.3063 128.488 92.3818C128.519 91.4573 128.311 90.5404 127.884 89.7198L119.824 74.0131C119.82 68.176 118.372 62.4306 115.608 57.2892C112.844 52.1479 108.851 47.7704 103.984 44.547C99.1179 41.3237 93.5294 39.3546 87.7172 38.8155C81.905 38.2764 76.0497 39.1839 70.6734 41.4572C65.2971 43.7305 60.5669 47.2989 56.9046 51.8441C53.2422 56.3894 50.7616 61.7703 49.6838 67.5071C48.606 73.2439 48.9646 79.1582 50.7276 84.7228C52.4906 90.2873 55.6031 95.3292 59.7878 99.3987V133.361" stroke="#2C306B" stroke-width="3" stroke-miterlimit="10" stroke-linecap="round"/>
<path d="M63.5766 76.7C63.5766 76.7 63.2666 56.7566 82.0389 55C85.491 54.4627 89.0248 54.9123 92.2324 56.2969C95.4401 57.6814 98.191 59.9446 100.168 62.8252C102.145 65.7059 103.267 69.0867 103.405 72.5777C103.543 76.0687 102.692 79.5276 100.949 82.5555C94.06 93.5088 78.1466 90.4433 75.4944 80.5922C72.8422 70.7411 80.9711 64.0933 88.6178 66.8144C96.2644 69.5355 93.8533 79.8689 87.8255 79.7311" stroke="#2C306B" stroke-width="3" stroke-miterlimit="10" stroke-linecap="round"/>
</svg>
